<svg xmlns="http://www.w3.org/2000/svg" viewBox="0 0 16 16" id="Bitcoin--Streamline-Font-Awesome" height="16" width="16"><desc>Bitcoin Streamline Icon: https://streamlinehq.com</desc><!--! Font Awesome Free 6.5.2 by @fontawesome - https://fontawesome.com License - https://fontawesome.com/license/free (Icons: CC BY 4.0, Fonts: SIL OFL 1.1, Code: MIT License) Copyright 2024 Fonticons, Inc.--><path d="M15.75 8c0 4.28021875 -3.46978125 7.75 -7.75 7.75S0.25 12.28021875 0.25 8 3.71978125 0.25 8 0.25s7.75 3.46978125 7.75 7.75zm-4.42659375 -1.1040625c0.15428125 -1.03121875 -0.63096875 -1.58559375 -1.7046875 -1.95540625l0.3483125 -1.3969375 -0.85040625 -0.21190625 -0.33909375 1.360125c-0.2235625 -0.05571875 -0.4531875 -0.10825 -0.68134375 -0.1603125l0.34153125 -1.3690625 -0.8499375 -0.21190625 -0.34853125 1.3964375c-0.1850625 -0.04215625 -0.36671875 -0.0838125 -0.54303125 -0.127625l0.00096875 -0.004375 -1.1728125 -0.2928125 -0.22621875 0.9081875s0.63096875 0.14459375 0.61765625 0.15353125c0.3444375 0.08596875 0.4066875 0.313875 0.39625 0.49453125l-0.39675 1.59140625c0.02375 0.0060625 0.0545 0.01478125 0.08840625 0.02834375 -0.02834375 -0.00703125 -0.058625 -0.01478125 -0.089875 -0.02228125l-0.556125 2.2293125c-0.04215625 0.104625 -0.14896875 0.2615625 -0.38971875 0.202 0.00846875 0.01234375 -0.618125 -0.15428125 -0.618125 -0.15428125l-0.4221875 0.97334375 1.1066875 0.27584375c0.205875 0.05159375 0.40765625 0.10559375 0.60625 0.1564375l-0.3519375 1.41290625 0.8494375 0.21190625 0.34853125 -1.39790625a32.44403125 32.44403125 0 0 0 0.67771875 0.17584375l-0.34734375 1.39134375 0.85040625 0.21190625 0.3519375 -1.41025c1.450125 0.27440625 2.54059375 0.16371875 2.9995625 -1.14771875 0.369875 -1.0559375 -0.01840625 -1.66503125 -0.781375 -2.06221875 0.555625 -0.1280625 0.9741875 -0.4935 1.08584375 -1.24840625zm-1.94303125 2.72434375c-0.2628125 1.0559375 -2.040875 0.48509375 -2.61734375 0.34196875l0.467 -1.87184375c0.5764375 0.14384375 2.425 0.42865625 2.15034375 1.529875zm0.26303125 -2.73959375c-0.23978125 0.9605 -1.71971875 0.4725 -2.19978125 0.352875l0.423375 -1.69771875c0.48009375 0.119625 2.026125 0.34290625 1.77640625 1.34484375z" fill="#000000" stroke-width="0.0313"></path></svg>