<svg xmlns="http://www.w3.org/2000/svg" fill="none" viewBox="0 0 24 24" id="Format-List-Numbered--Streamline-Rounded-Material" height="24" width="24"><desc>Format List Numbered Streamline Icon: https://streamlinehq.com</desc><path fill="#000000" d="M3.75 22c-0.216665 0 -0.395835 -0.07085 -0.5375 -0.2125C3.070835 21.64585 3 21.46665 3 21.25c0 -0.21665 0.070835 -0.39585 0.2125 -0.5375 0.141665 -0.14165 0.320835 -0.2125 0.5375 -0.2125H5.5v-0.75H4.75c-0.216665 0 -0.395835 -0.07085 -0.5375 -0.2125C4.070835 19.39585 4 19.21665 4 19c0 -0.21665 0.070835 -0.39585 0.2125 -0.5375 0.141665 -0.14165 0.320835 -0.2125 0.5375 -0.2125H5.5V17.5H3.75c-0.216665 0 -0.395835 -0.07085 -0.5375 -0.2125C3.070835 17.14585 3 16.96665 3 16.75c0 -0.21665 0.070835 -0.39585 0.2125 -0.5375 0.141665 -0.14165 0.320835 -0.2125 0.5375 -0.2125H6c0.28335 0 0.52085 0.09585 0.7125 0.2875S7 16.71665 7 17v1c0 0.28335 -0.09585 0.52085 -0.2875 0.7125S6.28335 19 6 19c0.28335 0 0.52085 0.09585 0.7125 0.2875S7 19.71665 7 20v1c0 0.28335 -0.09585 0.52085 -0.2875 0.7125S6.28335 22 6 22H3.75Zm-0.175 -7c-0.15 0 -0.283335 -0.05835 -0.4 -0.175 -0.116665 -0.11665 -0.175 -0.25 -0.175 -0.4V12.25c0 -0.28335 0.095835 -0.52085 0.2875 -0.7125 0.191665 -0.19165 0.429165 -0.2875 0.7125 -0.2875h1.5V10.5H3.75c-0.216665 0 -0.395835 -0.07085 -0.5375 -0.2125C3.070835 10.14585 3 9.96665 3 9.75c0 -0.21665 0.070835 -0.39585 0.2125 -0.5375 0.141665 -0.14165 0.320835 -0.2125 0.5375 -0.2125H6c0.28335 0 0.52085 0.09585 0.7125 0.2875S7 9.71665 7 10v1.75c0 0.28335 -0.09585 0.52085 -0.2875 0.7125s-0.42915 0.2875 -0.7125 0.2875H4.5V13.5h1.75c0.21665 0 0.39585 0.07085 0.5375 0.2125S7 14.03335 7 14.25c0 0.21665 -0.07085 0.39585 -0.2125 0.5375S6.46665 15 6.25 15H3.575Zm1.675 -7c-0.21665 0 -0.395835 -0.07085 -0.5375 -0.2125C4.570835 7.64585 4.5 7.46665 4.5 7.25V3.5H3.75c-0.216665 0 -0.395835 -0.070835 -0.5375 -0.2125C3.070835 3.145835 3 2.966665 3 2.75s0.070835 -0.395835 0.2125 -0.5375C3.354165 2.070835 3.533335 2 3.75 2h1.7c0.15 0 0.27915 0.054165 0.3875 0.1625 0.10835 0.108335 0.1625 0.2375 0.1625 0.3875v4.7c0 0.21665 -0.07085 0.39585 -0.2125 0.5375S5.46665 8 5.25 8Zm4.725 10.775c-0.2125 0 -0.3906 -0.07235 -0.53425 -0.217 -0.14385 -0.1445 -0.21575 -0.32365 -0.21575 -0.5375 0 -0.21365 0.0719 -0.39135 0.21575 -0.533 0.14365 -0.14165 0.32175 -0.2125 0.53425 -0.2125H20.25c0.2125 0 0.39065 0.07235 0.5345 0.217 0.14365 0.1445 0.2155 0.32365 0.2155 0.5375 0 0.21365 -0.07185 0.39135 -0.2155 0.533 -0.14385 0.14165 -0.322 0.2125 -0.5345 0.2125H9.975Zm0 -6.075c-0.2125 0 -0.3906 -0.07235 -0.53425 -0.217 -0.14385 -0.1445 -0.21575 -0.32365 -0.21575 -0.5375 0 -0.21365 0.0719 -0.39135 0.21575 -0.533 0.14365 -0.14165 0.32175 -0.2125 0.53425 -0.2125H20.25c0.2125 0 0.39065 0.07235 0.5345 0.217 0.14365 0.1445 0.2155 0.32365 0.2155 0.5375 0 0.21365 -0.07185 0.39135 -0.2155 0.533 -0.14385 0.14165 -0.322 0.2125 -0.5345 0.2125H9.975Zm0 -6.075c-0.2125 0 -0.3906 -0.07235 -0.53425 -0.217 -0.14385 -0.1445 -0.21575 -0.32365 -0.21575 -0.5375 0 -0.21365 0.0719 -0.39135 0.21575 -0.533 0.14365 -0.14165 0.32175 -0.2125 0.53425 -0.2125H20.25c0.2125 0 0.39065 0.07235 0.5345 0.217 0.14365 0.1445 0.2155 0.32365 0.2155 0.5375 0 0.21365 -0.07185 0.39135 -0.2155 0.533 -0.14385 0.14165 -0.322 0.2125 -0.5345 0.2125H9.975Z" stroke-width="0.5"></path></svg>