<svg viewBox="0 0 16 16" fill="none" xmlns="http://www.w3.org/2000/svg" id="Google--Streamline-Unicons-Thinline" height="16" width="16"><desc>Google Streamline Icon: https://streamlinehq.com</desc><path d="M14.754533333333331 6.6888000000000005c-0.02853333333333333 -0.15876666666666667 -0.16679999999999998 -0.27424666666666664 -0.32813333333333333 -0.27408666666666665h-6.278599999999999c-0.184 -0.00012 -0.33326666666666666 0.14896666666666666 -0.3333333333333333 0.3329533333333333 0 -0.00013333333333333334 0 0.00013333333333333334 0 0v2.579133333333333c-0.00013333333333333334 0.184 0.1489333333333333 0.33326666666666666 0.3329333333333333 0.3333333333333333 -0.00019999999999999998 0 0.00006666666666666667 0 0 0h3.1572666666666667c-0.19753333333333334 0.5738666666666666 -0.5787333333333333 1.0665333333333333 -1.0846 1.401733333333333 -0.6180666666666667 0.3943333333333333 -1.3393333333333333 0.5962666666666666 -2.0722666666666667 0.5800666666666666 -1.5625666666666667 -0.016066666666666667 -2.9386599999999996 -1.0322 -3.4138 -2.5208666666666666l-0.0005333333333333334 -0.0007999999999999999c-0.25532666666666665 -0.7524666666666666 -0.25532666666666665 -1.5681333333333332 0 -2.3205999999999998l0.0005333333333333334 -0.0008666666666666666c0.47522 -1.4885333333333333 1.8512733333333333 -2.5046866666666663 3.4138 -2.5208 0.8615333333333333 -0.013919999999999998 1.6940666666666666 0.3110733333333333 2.3183333333333334 0.9049466666666667 0.13086666666666666 0.12552666666666668 0.3381333333333333 0.12320666666666666 0.46613333333333334 -0.005206666666666667l1.9121333333333332 -1.9121133333333333c0.13026666666666664 -0.13020666666666666 0.13026666666666664 -0.34130666666666665 0.00006666666666666667 -0.47156 -0.0027999999999999995 -0.0028066666666666665 -0.005666666666666667 -0.005573333333333333 -0.008533333333333334 -0.00826 -1.2694666666666665 -1.1893266666666666 -2.9486666666666665 -1.8431799999999998 -4.688133333333333 -1.82552 -2.6485 -0.007973333333333332 -5.0725333333333325 1.4863733333333333 -6.255233333333333 3.8561199999999998 -0.9930399999999999 1.9780599999999997 -0.9930399999999999 4.30906 0 6.2871266666666665 1.18278 2.3697999999999997 3.606653333333333 3.8642666666666665 6.255233333333333 3.856733333333333 1.7054 0.04473333333333333 3.3634666666666666 -0.5639333333333333 4.635 -1.7012666666666665l0.0029999999999999996 -0.0018666666666666666c1.3926 -1.3432 2.1536 -3.2118 2.0957333333333334 -5.1457999999999995 -0.00013333333333333334 -0.477 -0.042666666666666665 -0.9530666666666666 -0.127 -1.4225333333333332Zm-6.606733333333333 -5.061846666666666c1.4513333333333334 -0.015053333333333332 2.860533333333333 0.48771333333333333 3.9745999999999997 1.4180133333333331l-1.4401333333333333 1.44006c-0.7174666666666667 -0.5771866666666666 -1.6137333333333332 -0.8861466666666666 -2.5344666666666664 -0.8736933333333333 -1.6808066666666666 0.011633333333333332 -3.1985533333333334 1.0078533333333333 -3.8777933333333334 2.5453266666666665L2.6162799999999997 4.874226666666667c1.1139333333333332 -2.0099266666666664 3.2335199999999995 -3.2542666666666666 5.53152 -3.2472733333333332ZM1.8144399999999998 7.960266666666667c-0.0017066666666666667 -0.8501333333333332 0.16911333333333334 -1.6918333333333333 0.5021199999999999 -2.4741l1.7152066666666665 1.3301666666666665c-0.20861333333333332 0.7481333333333333 -0.20861333333333332 1.5390666666666668 0 2.2872666666666666l-1.7145133333333331 1.3296c-0.3308933333333333 -0.7824666666666666 -0.5018333333333334 -1.6233333333333333 -0.5028133333333333 -2.472933333333333Zm6.33336 6.333333333333333c-2.29812 0.006866666666666667 -4.417746666666666 -1.2377333333333334 -5.53152 -3.247933333333333l1.6537266666666666 -1.2824c0.67908 1.5375999999999999 2.1969399999999997 2.5338666666666665 3.8777933333333334 2.5453333333333332 0.7823333333333333 0.011933333333333332 1.5539999999999998 -0.1828 2.237 -0.5644666666666667l0.07273333333333333 0.05653333333333333 1.5756666666666668 1.2240666666666666c-1.1117333333333332 0.8552666666666666 -2.4832666666666663 1.3031333333333333 -3.8853999999999997 1.2688666666666666Zm4.388 -1.7226666666666666 -1.5852666666666666 -1.2310666666666665c0.5817333333333333 -0.5056666666666666 0.9742 -1.1942666666666666 1.1126 -1.9524666666666666 0.033666666666666664 -0.1808 -0.08553333333333332 -0.3546 -0.26626666666666665 -0.38826666666666665 -0.0202 -0.0038 -0.04066666666666666 -0.005666666666666667 -0.061200000000000004 -0.005666666666666667h-3.2545333333333333v-1.9120666666666666h5.661466666666667c0.048133333333333334 0.3412 0.07233333333333333 0.6853333333333333 0.07226666666666666 1.0299333333333331 0.047999999999999994 1.6494 -0.5551999999999999 3.2514000000000003 -1.6790666666666667 4.4596Z" fill="#000000" stroke-width="0.6667"></path></svg>