<svg xmlns="http://www.w3.org/2000/svg" fill="none" viewBox="0 0 24 24" id="Laptop-Chromebook--Streamline-Rounded-Material" height="24" width="24"><desc>Laptop Chromebook Streamline Icon: https://streamlinehq.com</desc><path fill="#000000" d="M0.75 20c-0.2125 0 -0.3905835 -0.07235 -0.53425 -0.217C0.0719165 19.6385 0 19.45935 0 19.2455c0 -0.21365 0.0719165 -0.39135 0.21575 -0.533C0.3594165 18.57085 0.5375 18.5 0.75 18.5H2V4.5c0 -0.4125 0.146915 -0.765665 0.44075 -1.0595C2.734415 3.146835 3.0875 3 3.5 3h17c0.4125 0 0.76565 0.146835 1.0595 0.4405C21.85315 3.734335 22 4.0875 22 4.5v14h1.25c0.2125 0 0.39065 0.07235 0.5345 0.217 0.14365 0.1445 0.2155 0.32365 0.2155 0.5375 0 0.21365 -0.07185 0.39135 -0.2155 0.533 -0.14385 0.14165 -0.322 0.2125 -0.5345 0.2125h-22.5Zm9.66475 -1.5h3.2205c0.14315 0 0.26475 -0.05 0.36475 -0.15 0.1 -0.1 0.15 -0.225 0.15 -0.375s-0.05 -0.275 -0.15 -0.375c-0.1 -0.1 -0.2216 -0.15 -0.36475 -0.15h-3.2205c-0.14315 0 -0.26475 0.05 -0.36475 0.15 -0.1 0.1 -0.15 0.225 -0.15 0.375s0.05 0.275 0.15 0.375c0.1 0.1 0.2216 0.15 0.36475 0.15ZM3.6 15.95h17V4.5h-17v11.45Z" stroke-width="0.5"></path></svg>