<svg xmlns="http://www.w3.org/2000/svg" fill="none" viewBox="0 0 24 24" id="Smartphone--Streamline-Rounded-Material" height="24" width="24"><desc>Smartphone Streamline Icon: https://streamlinehq.com</desc><path fill="#000000" d="M6.5 23c-0.4 0 -0.75 -0.15 -1.05 -0.45 -0.3 -0.3 -0.45 -0.65 -0.45 -1.05V2.5c0 -0.4 0.15 -0.75 0.45 -1.05 0.3 -0.3 0.65 -0.45 1.05 -0.45h11c0.4 0 0.75 0.15 1.05 0.45 0.3 0.3 0.45 0.65 0.45 1.05v19c0 0.4 -0.15 0.75 -0.45 1.05 -0.3 0.3 -0.65 0.45 -1.05 0.45H6.5Zm0 -2.25V21.5h11v-0.75H6.5Zm0 -1.5h11v-14.5H6.5v14.5Zm0 -16h11V2.5H6.5v0.75Z" stroke-width="0.5"></path></svg>